<?xml version="1.0" encoding="UTF-8"?>
<svg xmlns="http://www.w3.org/2000/svg" xmlns:xlink="http://www.w3.org/1999/xlink" width="517.633pt" height="222.959pt" viewBox="0 0 517.633 222.959">
<defs>
<g>
<g id="glyph-0-0">
<path d="M 6.8125 -3.96875 C 6.890625 -4.265625 6.921875 -4.4375 6.921875 -4.8125 C 6.921875 -5.6875 6.421875 -6.328125 5.328125 -6.328125 C 4.0625 -6.328125 3.390625 -5.421875 3.125 -5.0625 C 3.078125 -5.875 2.5 -6.328125 1.859375 -6.328125 C 1.453125 -6.328125 1.125 -6.125 0.84375 -5.578125 C 0.59375 -5.0625 0.390625 -4.1875 0.390625 -4.125 C 0.390625 -4.078125 0.4375 -4 0.546875 -4 C 0.65625 -4 0.671875 -4.015625 0.765625 -4.34375 C 0.96875 -5.1875 1.25 -6.03125 1.828125 -6.03125 C 2.15625 -6.03125 2.265625 -5.8125 2.265625 -5.375 C 2.265625 -5.0625 2.125 -4.5 2.015625 -4.0625 L 1.625 -2.515625 C 1.5625 -2.234375 1.40625 -1.59375 1.328125 -1.328125 C 1.234375 -0.96875 1.078125 -0.28125 1.078125 -0.21875 C 1.078125 -0.015625 1.234375 0.140625 1.453125 0.140625 C 1.625 0.140625 1.828125 0.0625 1.9375 -0.15625 C 1.96875 -0.234375 2.09375 -0.734375 2.171875 -1.015625 L 2.484375 -2.3125 L 2.953125 -4.203125 C 2.984375 -4.28125 3.34375 -5 3.875 -5.46875 C 4.25 -5.8125 4.734375 -6.03125 5.296875 -6.03125 C 5.859375 -6.03125 6.0625 -5.609375 6.0625 -5.03125 C 6.0625 -4.625 6.015625 -4.390625 5.9375 -4.109375 L 4.28125 2.484375 C 4.265625 2.546875 4.234375 2.640625 4.234375 2.71875 C 4.234375 2.9375 4.40625 3.078125 4.625 3.078125 C 4.75 3.078125 5.046875 3.03125 5.15625 2.59375 Z M 6.8125 -3.96875 "/>
</g>
<g id="glyph-0-1">
<path d="M 8.4375 -8.203125 L 8.765625 -8.53125 C 9.390625 -9.1875 9.921875 -9.34375 10.421875 -9.375 C 10.578125 -9.390625 10.71875 -9.40625 10.71875 -9.65625 C 10.71875 -9.796875 10.578125 -9.796875 10.546875 -9.796875 C 10.375 -9.796875 10.1875 -9.765625 10.015625 -9.765625 L 9.421875 -9.765625 C 9.015625 -9.765625 8.5625 -9.796875 8.15625 -9.796875 C 8.0625 -9.796875 7.90625 -9.796875 7.90625 -9.53125 C 7.90625 -9.390625 8.046875 -9.375 8.09375 -9.375 C 8.515625 -9.359375 8.515625 -9.140625 8.515625 -9.046875 C 8.515625 -8.890625 8.40625 -8.671875 8.125 -8.34375 L 4.703125 -4.4375 L 3.078125 -8.796875 C 3 -9 3 -9.015625 3 -9.046875 C 3 -9.359375 3.578125 -9.375 3.765625 -9.375 C 3.9375 -9.375 4.09375 -9.375 4.09375 -9.640625 C 4.09375 -9.796875 3.953125 -9.796875 3.875 -9.796875 C 3.625 -9.796875 3.34375 -9.765625 3.09375 -9.765625 L 1.5 -9.765625 C 1.25 -9.765625 0.96875 -9.796875 0.734375 -9.796875 C 0.625 -9.796875 0.46875 -9.796875 0.46875 -9.53125 C 0.46875 -9.375 0.609375 -9.375 0.8125 -9.375 C 1.515625 -9.375 1.65625 -9.25 1.78125 -8.921875 L 3.5625 -4.140625 C 3.578125 -4.109375 3.609375 -3.9375 3.609375 -3.90625 C 3.609375 -3.859375 2.90625 -1.03125 2.875 -0.890625 C 2.75 -0.5 2.609375 -0.4375 1.6875 -0.421875 C 1.453125 -0.421875 1.328125 -0.421875 1.328125 -0.140625 C 1.328125 0 1.484375 0 1.53125 0 C 1.796875 0 2.09375 -0.03125 2.359375 -0.03125 L 4.0625 -0.03125 C 4.3125 -0.03125 4.625 0 4.875 0 C 4.984375 0 5.15625 0 5.15625 -0.265625 C 5.15625 -0.421875 5.046875 -0.421875 4.8125 -0.421875 C 3.921875 -0.421875 3.921875 -0.515625 3.921875 -0.671875 C 3.921875 -0.78125 4.03125 -1.234375 4.109375 -1.515625 L 4.625 -3.578125 C 4.703125 -3.890625 4.703125 -3.921875 4.828125 -4.0625 Z M 8.4375 -8.203125 "/>
</g>
<g id="glyph-0-2">
<path d="M 2 -3.265625 C 2.453125 -3.078125 2.9375 -3.078125 3.21875 -3.078125 C 3.578125 -3.078125 4.328125 -3.078125 4.328125 -3.5 C 4.328125 -3.765625 4.0625 -3.859375 3.328125 -3.859375 C 2.96875 -3.859375 2.53125 -3.8125 2.03125 -3.59375 C 1.59375 -3.8125 1.421875 -4.140625 1.421875 -4.453125 C 1.421875 -5.34375 2.828125 -5.859375 4.109375 -5.859375 C 4.34375 -5.859375 4.859375 -5.859375 5.46875 -5.421875 C 5.546875 -5.359375 5.59375 -5.328125 5.6875 -5.328125 C 5.859375 -5.328125 6.046875 -5.515625 6.046875 -5.6875 C 6.046875 -5.9375 5.21875 -6.484375 4.234375 -6.484375 C 2.625 -6.484375 1.109375 -5.515625 1.109375 -4.453125 C 1.109375 -3.9375 1.453125 -3.59375 1.6875 -3.421875 C 0.859375 -2.953125 0.375 -2.1875 0.375 -1.484375 C 0.375 -0.484375 1.265625 0.296875 2.640625 0.296875 C 4.53125 0.296875 5.296875 -0.96875 5.296875 -1.15625 C 5.296875 -1.234375 5.234375 -1.296875 5.15625 -1.296875 C 5.09375 -1.296875 5.0625 -1.25 5 -1.15625 C 4.84375 -0.890625 4.46875 -0.3125 2.765625 -0.3125 C 1.875 -0.3125 0.703125 -0.546875 0.703125 -1.5625 C 0.703125 -2.046875 1.0625 -2.78125 2 -3.265625 Z M 2.4375 -3.4375 C 2.828125 -3.578125 3.203125 -3.578125 3.296875 -3.578125 C 3.703125 -3.578125 3.765625 -3.546875 4 -3.484375 C 3.765625 -3.375 3.734375 -3.375 3.21875 -3.375 C 2.953125 -3.375 2.71875 -3.375 2.4375 -3.4375 Z M 2.4375 -3.4375 "/>
</g>
<g id="glyph-0-3">
<path d="M 2.71875 -0.703125 C 1.859375 -1.03125 1.375 -1.671875 1.375 -2.75 C 1.375 -4.71875 2.828125 -7.34375 4.59375 -8.359375 C 4.84375 -8.125 5.171875 -8.125 5.453125 -8.125 C 5.8125 -8.125 6.6875 -8.125 6.6875 -8.53125 C 6.6875 -8.875 6.03125 -8.890625 5.578125 -8.890625 C 5.296875 -8.890625 5.046875 -8.890625 4.671875 -8.734375 C 4.59375 -8.921875 4.546875 -9.125 4.546875 -9.34375 C 4.546875 -9.59375 4.609375 -9.796875 4.609375 -9.84375 C 4.609375 -9.921875 4.53125 -9.984375 4.453125 -9.984375 C 4.234375 -9.984375 4.234375 -9.453125 4.234375 -9.34375 C 4.234375 -9.203125 4.234375 -8.90625 4.40625 -8.609375 C 2.734375 -7.75 0.640625 -5.0625 0.640625 -2.375 C 0.640625 -0.421875 1.953125 0.046875 2.703125 0.296875 C 2.890625 0.359375 3.34375 0.515625 3.53125 0.59375 C 4.109375 0.78125 4.671875 0.96875 4.671875 1.65625 C 4.671875 2.078125 4.375 2.640625 3.84375 2.640625 C 3.5625 2.640625 3.171875 2.53125 2.8125 2.1875 C 2.75 2.125 2.71875 2.09375 2.65625 2.09375 C 2.53125 2.09375 2.515625 2.203125 2.515625 2.234375 C 2.515625 2.375 3.125 2.921875 3.84375 2.921875 C 4.765625 2.921875 5.390625 1.96875 5.390625 1.21875 C 5.390625 0.21875 4.5625 -0.078125 4.03125 -0.25 Z M 4.90625 -8.5 C 5.125 -8.609375 5.328125 -8.609375 5.5625 -8.609375 C 6.03125 -8.609375 6.0625 -8.59375 6.359375 -8.515625 C 6.1875 -8.453125 6.0625 -8.40625 5.46875 -8.40625 C 5.15625 -8.40625 5.0625 -8.40625 4.90625 -8.5 Z M 4.90625 -8.5 "/>
</g>
<g id="glyph-0-4">
<path d="M 8.125 -8.34375 C 8.125 -9.203125 7.390625 -10.109375 6.078125 -10.109375 C 4.234375 -10.109375 3.0625 -7.84375 2.6875 -6.359375 L 0.421875 2.640625 C 0.390625 2.75 0.46875 2.78125 0.546875 2.78125 C 0.640625 2.78125 0.71875 2.765625 0.734375 2.703125 L 1.734375 -1.3125 C 1.875 -0.515625 2.671875 0.140625 3.515625 0.140625 C 5.5625 0.140625 7.5 -1.46875 7.5 -3.59375 C 7.5 -4.140625 7.375 -4.6875 7.078125 -5.15625 C 6.90625 -5.421875 6.6875 -5.625 6.453125 -5.796875 C 7.484375 -6.34375 8.125 -7.21875 8.125 -8.34375 Z M 5.625 -5.8125 C 5.390625 -5.71875 5.15625 -5.6875 4.890625 -5.6875 C 4.6875 -5.6875 4.5 -5.6875 4.25 -5.765625 C 4.390625 -5.859375 4.609375 -5.890625 4.90625 -5.890625 C 5.15625 -5.890625 5.421875 -5.859375 5.625 -5.8125 Z M 7.375 -8.484375 C 7.375 -7.6875 6.984375 -6.546875 6.046875 -6.015625 C 5.78125 -6.109375 5.40625 -6.1875 5.09375 -6.1875 C 4.796875 -6.1875 3.9375 -6.203125 3.9375 -5.75 C 3.9375 -5.359375 4.71875 -5.40625 4.96875 -5.40625 C 5.328125 -5.40625 5.671875 -5.5 6.015625 -5.59375 C 6.46875 -5.21875 6.671875 -4.734375 6.671875 -4.015625 C 6.671875 -3.1875 6.4375 -2.515625 6.171875 -1.890625 C 5.6875 -0.828125 4.578125 -0.140625 3.578125 -0.140625 C 2.53125 -0.140625 2 -0.96875 2 -1.953125 C 2 -2.078125 2 -2.265625 2.046875 -2.484375 L 2.984375 -6.25 C 3.453125 -8.140625 4.65625 -9.828125 6.046875 -9.828125 C 7.078125 -9.828125 7.375 -9.109375 7.375 -8.484375 Z M 7.375 -8.484375 "/>
</g>
<g id="glyph-1-0">
<path d="M 2.9375 -6.375 C 2.9375 -6.625 2.9375 -6.640625 2.703125 -6.640625 C 2.078125 -6 1.203125 -6 0.890625 -6 L 0.890625 -5.6875 C 1.09375 -5.6875 1.671875 -5.6875 2.1875 -5.953125 L 2.1875 -0.78125 C 2.1875 -0.421875 2.15625 -0.3125 1.265625 -0.3125 L 0.953125 -0.3125 L 0.953125 0 C 1.296875 -0.03125 2.15625 -0.03125 2.5625 -0.03125 C 2.953125 -0.03125 3.828125 -0.03125 4.171875 0 L 4.171875 -0.3125 L 3.859375 -0.3125 C 2.953125 -0.3125 2.9375 -0.421875 2.9375 -0.78125 Z M 2.9375 -6.375 "/>
</g>
<g id="glyph-1-1">
<path d="M 1.265625 -0.765625 L 2.328125 -1.796875 C 3.875 -3.171875 4.46875 -3.703125 4.46875 -4.703125 C 4.46875 -5.84375 3.578125 -6.640625 2.359375 -6.640625 C 1.234375 -6.640625 0.5 -5.71875 0.5 -4.828125 C 0.5 -4.28125 1 -4.28125 1.03125 -4.28125 C 1.203125 -4.28125 1.546875 -4.390625 1.546875 -4.8125 C 1.546875 -5.0625 1.359375 -5.328125 1.015625 -5.328125 C 0.9375 -5.328125 0.921875 -5.328125 0.890625 -5.3125 C 1.109375 -5.96875 1.65625 -6.328125 2.234375 -6.328125 C 3.140625 -6.328125 3.5625 -5.515625 3.5625 -4.703125 C 3.5625 -3.90625 3.078125 -3.125 2.515625 -2.5 L 0.609375 -0.375 C 0.5 -0.265625 0.5 -0.234375 0.5 0 L 4.203125 0 L 4.46875 -1.734375 L 4.234375 -1.734375 C 4.171875 -1.4375 4.109375 -1 4 -0.84375 C 3.9375 -0.765625 3.28125 -0.765625 3.0625 -0.765625 Z M 1.265625 -0.765625 "/>
</g>
<g id="glyph-1-2">
<path d="M 2.890625 -3.515625 C 3.703125 -3.78125 4.28125 -4.46875 4.28125 -5.265625 C 4.28125 -6.078125 3.40625 -6.640625 2.453125 -6.640625 C 1.453125 -6.640625 0.6875 -6.046875 0.6875 -5.28125 C 0.6875 -4.953125 0.90625 -4.765625 1.203125 -4.765625 C 1.5 -4.765625 1.703125 -4.984375 1.703125 -5.28125 C 1.703125 -5.765625 1.234375 -5.765625 1.09375 -5.765625 C 1.390625 -6.265625 2.046875 -6.390625 2.40625 -6.390625 C 2.828125 -6.390625 3.375 -6.171875 3.375 -5.28125 C 3.375 -5.15625 3.34375 -4.578125 3.09375 -4.140625 C 2.796875 -3.65625 2.453125 -3.625 2.203125 -3.625 C 2.125 -3.609375 1.890625 -3.59375 1.8125 -3.59375 C 1.734375 -3.578125 1.671875 -3.5625 1.671875 -3.46875 C 1.671875 -3.359375 1.734375 -3.359375 1.90625 -3.359375 L 2.34375 -3.359375 C 3.15625 -3.359375 3.53125 -2.6875 3.53125 -1.703125 C 3.53125 -0.34375 2.84375 -0.0625 2.40625 -0.0625 C 1.96875 -0.0625 1.21875 -0.234375 0.875 -0.8125 C 1.21875 -0.765625 1.53125 -0.984375 1.53125 -1.359375 C 1.53125 -1.71875 1.265625 -1.921875 0.984375 -1.921875 C 0.734375 -1.921875 0.421875 -1.78125 0.421875 -1.34375 C 0.421875 -0.4375 1.34375 0.21875 2.4375 0.21875 C 3.65625 0.21875 4.5625 -0.6875 4.5625 -1.703125 C 4.5625 -2.515625 3.921875 -3.296875 2.890625 -3.515625 Z M 2.890625 -3.515625 "/>
</g>
<g id="glyph-1-3">
<path d="M 2.9375 -1.640625 L 2.9375 -0.78125 C 2.9375 -0.421875 2.90625 -0.3125 2.171875 -0.3125 L 1.96875 -0.3125 L 1.96875 0 C 2.375 -0.03125 2.890625 -0.03125 3.3125 -0.03125 C 3.734375 -0.03125 4.25 -0.03125 4.671875 0 L 4.671875 -0.3125 L 4.453125 -0.3125 C 3.71875 -0.3125 3.703125 -0.421875 3.703125 -0.78125 L 3.703125 -1.640625 L 4.6875 -1.640625 L 4.6875 -1.953125 L 3.703125 -1.953125 L 3.703125 -6.484375 C 3.703125 -6.6875 3.703125 -6.75 3.53125 -6.75 C 3.453125 -6.75 3.421875 -6.75 3.34375 -6.625 L 0.28125 -1.953125 L 0.28125 -1.640625 Z M 2.984375 -1.953125 L 0.5625 -1.953125 L 2.984375 -5.671875 Z M 2.984375 -1.953125 "/>
</g>
<g id="glyph-1-4">
<path d="M 4.46875 -2 C 4.46875 -3.1875 3.65625 -4.1875 2.578125 -4.1875 C 2.109375 -4.1875 1.671875 -4.03125 1.3125 -3.671875 L 1.3125 -5.625 C 1.515625 -5.5625 1.84375 -5.5 2.15625 -5.5 C 3.390625 -5.5 4.09375 -6.40625 4.09375 -6.53125 C 4.09375 -6.59375 4.0625 -6.640625 3.984375 -6.640625 C 3.984375 -6.640625 3.953125 -6.640625 3.90625 -6.609375 C 3.703125 -6.515625 3.21875 -6.3125 2.546875 -6.3125 C 2.15625 -6.3125 1.6875 -6.390625 1.21875 -6.59375 C 1.140625 -6.625 1.125 -6.625 1.109375 -6.625 C 1 -6.625 1 -6.546875 1 -6.390625 L 1 -3.4375 C 1 -3.265625 1 -3.1875 1.140625 -3.1875 C 1.21875 -3.1875 1.234375 -3.203125 1.28125 -3.265625 C 1.390625 -3.421875 1.75 -3.96875 2.5625 -3.96875 C 3.078125 -3.96875 3.328125 -3.515625 3.40625 -3.328125 C 3.5625 -2.953125 3.59375 -2.578125 3.59375 -2.078125 C 3.59375 -1.71875 3.59375 -1.125 3.34375 -0.703125 C 3.109375 -0.3125 2.734375 -0.0625 2.28125 -0.0625 C 1.5625 -0.0625 0.984375 -0.59375 0.8125 -1.171875 C 0.84375 -1.171875 0.875 -1.15625 0.984375 -1.15625 C 1.3125 -1.15625 1.484375 -1.40625 1.484375 -1.640625 C 1.484375 -1.890625 1.3125 -2.140625 0.984375 -2.140625 C 0.84375 -2.140625 0.5 -2.0625 0.5 -1.609375 C 0.5 -0.75 1.1875 0.21875 2.296875 0.21875 C 3.453125 0.21875 4.46875 -0.734375 4.46875 -2 Z M 4.46875 -2 "/>
</g>
<g id="glyph-1-5">
<path d="M 1.3125 -3.265625 L 1.3125 -3.515625 C 1.3125 -6.03125 2.546875 -6.390625 3.0625 -6.390625 C 3.296875 -6.390625 3.71875 -6.328125 3.9375 -5.984375 C 3.78125 -5.984375 3.390625 -5.984375 3.390625 -5.546875 C 3.390625 -5.234375 3.625 -5.078125 3.84375 -5.078125 C 4 -5.078125 4.3125 -5.171875 4.3125 -5.5625 C 4.3125 -6.15625 3.875 -6.640625 3.046875 -6.640625 C 1.765625 -6.640625 0.421875 -5.359375 0.421875 -3.15625 C 0.421875 -0.484375 1.578125 0.21875 2.5 0.21875 C 3.609375 0.21875 4.5625 -0.71875 4.5625 -2.03125 C 4.5625 -3.296875 3.671875 -4.25 2.5625 -4.25 C 1.890625 -4.25 1.515625 -3.75 1.3125 -3.265625 Z M 2.5 -0.0625 C 1.875 -0.0625 1.578125 -0.65625 1.515625 -0.8125 C 1.328125 -1.28125 1.328125 -2.078125 1.328125 -2.25 C 1.328125 -3.03125 1.65625 -4.03125 2.546875 -4.03125 C 2.71875 -4.03125 3.171875 -4.03125 3.484375 -3.40625 C 3.65625 -3.046875 3.65625 -2.53125 3.65625 -2.046875 C 3.65625 -1.5625 3.65625 -1.0625 3.484375 -0.703125 C 3.1875 -0.109375 2.734375 -0.0625 2.5 -0.0625 Z M 2.5 -0.0625 "/>
</g>
<g id="glyph-2-0">
<path d="M 8 -5.96875 C 8.140625 -7.03125 7.125 -7.546875 6.953125 -7.625 C 6.890625 -7.671875 6.75 -7.734375 6.6875 -7.609375 C 6.640625 -7.515625 6.6875 -7.46875 6.765625 -7.421875 C 6.9375 -7.28125 7.078125 -7.171875 7.078125 -6.703125 C 7.078125 -6.40625 6.46875 -1.921875 6.453125 -1.890625 C 6.453125 -1.875 6.4375 -1.859375 6.28125 -1.8125 L 1.25 -0.140625 C 1.015625 -0.0625 0.875 -0.015625 0.78125 0.15625 C 0.6875 0.328125 0.765625 0.5625 0.953125 0.65625 C 1.015625 0.6875 1.15625 0.734375 1.296875 0.71875 C 1.578125 0.609375 4.5625 -0.6875 6.421875 -1.5 C 6.234375 -0.3125 6.046875 1.046875 5.90625 2.328125 C 5.875 2.5625 5.84375 2.765625 5.953125 3.03125 C 6.015625 3.203125 6.046875 3.21875 6.40625 3.40625 L 6.640625 3.53125 C 6.703125 3.546875 6.78125 3.59375 6.828125 3.5 C 6.859375 3.4375 6.84375 3.421875 6.828125 3.359375 C 6.78125 3.140625 6.8125 2.875 6.828125 2.703125 Z M 8 -5.96875 "/>
</g>
<g id="glyph-3-0">
<path d="M 5.515625 -4.359375 C 5.625 -4.578125 5.625 -4.59375 5.40625 -4.703125 C 4.578125 -4.40625 3.796875 -4.796875 3.515625 -4.9375 L 3.375 -4.671875 C 3.546875 -4.578125 4.0625 -4.328125 4.640625 -4.328125 L 2.3125 0.28125 C 2.140625 0.609375 2.0625 0.6875 1.265625 0.296875 L 0.984375 0.15625 L 0.84375 0.4375 C 1.171875 0.5625 1.9375 0.9375 2.296875 1.125 C 2.65625 1.296875 3.4375 1.703125 3.71875 1.890625 L 3.859375 1.609375 L 3.578125 1.46875 C 2.78125 1.046875 2.8125 0.953125 2.984375 0.625 Z M 5.515625 -4.359375 "/>
</g>
<g id="glyph-4-0">
<path d="M 10.734375 0.234375 C 10.921875 0.328125 11.140625 0.453125 11.265625 0.21875 C 11.390625 -0.015625 11.171875 -0.140625 10.984375 -0.234375 L 3.4375 -4.046875 C 3.265625 -4.140625 3.046875 -4.25 2.921875 -4.03125 C 2.796875 -3.78125 3 -3.6875 3.1875 -3.578125 Z M 9.53125 2.609375 C 9.71875 2.703125 9.9375 2.828125 10.0625 2.59375 C 10.1875 2.34375 9.96875 2.21875 9.78125 2.125 L 2.234375 -1.6875 C 2.0625 -1.78125 1.84375 -1.890625 1.71875 -1.640625 C 1.59375 -1.40625 1.796875 -1.3125 1.984375 -1.203125 Z M 9.53125 2.609375 "/>
</g>
<g id="glyph-4-1">
<path d="M 7.828125 -6.328125 C 7.984375 -6.640625 7.984375 -6.640625 7.734375 -6.765625 C 7.265625 -6.59375 6.390625 -6.421875 5.078125 -7.09375 L 4.875 -6.71875 C 5.171875 -6.578125 5.8125 -6.25 6.671875 -6.234375 L 3.296875 0.4375 C 3.0625 0.890625 2.953125 1.03125 1.828125 0.453125 L 1.421875 0.25 L 1.234375 0.625 C 1.609375 0.78125 2.84375 1.40625 3.265625 1.609375 C 3.6875 1.828125 4.921875 2.453125 5.234375 2.65625 L 5.421875 2.28125 L 5.03125 2.078125 C 3.90625 1.515625 3.9375 1.328125 4.171875 0.875 Z M 7.828125 -6.328125 "/>
</g>
<g id="glyph-5-0">
<path d="M -0.09375 -9.96875 C -0.859375 -10.71875 -1.875 -10.203125 -2.046875 -10.125 C -2.109375 -10.078125 -2.25 -10.015625 -2.1875 -9.890625 C -2.140625 -9.796875 -2.0625 -9.8125 -1.984375 -9.828125 C -1.78125 -9.90625 -1.609375 -9.953125 -1.234375 -9.671875 C -0.984375 -9.5 2.28125 -6.359375 2.296875 -6.328125 C 2.296875 -6.3125 2.28125 -6.296875 2.25 -6.125 L 0.625 -1.078125 C 0.546875 -0.84375 0.5 -0.703125 0.59375 -0.53125 C 0.6875 -0.359375 0.921875 -0.28125 1.109375 -0.375 C 1.171875 -0.40625 1.28125 -0.515625 1.328125 -0.625 C 1.421875 -0.921875 2.125 -4.09375 2.578125 -6.0625 C 3.421875 -5.21875 4.421875 -4.265625 5.375 -3.390625 C 5.53125 -3.21875 5.6875 -3.078125 5.953125 -3 C 6.140625 -2.953125 6.171875 -2.96875 6.53125 -3.15625 L 6.765625 -3.28125 C 6.828125 -3.296875 6.90625 -3.34375 6.859375 -3.4375 C 6.828125 -3.5 6.8125 -3.515625 6.734375 -3.515625 C 6.53125 -3.609375 6.34375 -3.78125 6.203125 -3.921875 Z M -0.09375 -9.96875 "/>
</g>
<g id="glyph-6-0">
<path d="M 0.78125 -1.265625 L 1.265625 -2.65625 C 2.015625 -4.578125 2.3125 -5.3125 1.859375 -6.203125 C 1.34375 -7.234375 0.1875 -7.546875 -0.890625 -6.984375 C -1.90625 -6.484375 -2.140625 -5.3125 -1.734375 -4.53125 C -1.484375 -4.03125 -1.046875 -4.265625 -1.015625 -4.28125 C -0.859375 -4.359375 -0.609375 -4.625 -0.796875 -5 C -0.921875 -5.21875 -1.1875 -5.359375 -1.5 -5.203125 C -1.5625 -5.171875 -1.578125 -5.171875 -1.609375 -5.140625 C -1.71875 -5.828125 -1.375 -6.390625 -0.859375 -6.65625 C -0.0625 -7.0625 0.671875 -6.53125 1.046875 -5.796875 C 1.40625 -5.09375 1.34375 -4.171875 1.125 -3.375 L 0.375 -0.609375 C 0.328125 -0.453125 0.34375 -0.421875 0.453125 -0.21875 L 3.75 -1.90625 L 3.203125 -3.5625 L 3 -3.46875 C 3.0625 -3.171875 3.21875 -2.75 3.1875 -2.5625 C 3.171875 -2.46875 2.578125 -2.171875 2.390625 -2.078125 Z M 0.78125 -1.265625 "/>
</g>
<g id="glyph-6-1">
<path d="M -0.265625 -7.015625 C -0.375 -7.234375 -0.375 -7.25 -0.59375 -7.140625 C -0.859375 -6.28125 -1.640625 -5.890625 -1.921875 -5.75 L -1.78125 -5.484375 C -1.609375 -5.578125 -1.09375 -5.828125 -0.734375 -6.296875 L 1.59375 -1.6875 C 1.765625 -1.359375 1.78125 -1.25 0.984375 -0.859375 L 0.703125 -0.71875 L 0.84375 -0.4375 C 1.140625 -0.625 1.90625 -1 2.265625 -1.1875 C 2.625 -1.359375 3.40625 -1.765625 3.71875 -1.890625 L 3.578125 -2.171875 L 3.296875 -2.03125 C 2.5 -1.609375 2.4375 -1.703125 2.265625 -2.03125 Z M -0.265625 -7.015625 "/>
</g>
<g id="glyph-7-0">
<path d="M 1.046875 -9.921875 C 0.375 -10.75 -0.703125 -10.34375 -0.875 -10.28125 C -0.953125 -10.25 -1.09375 -10.203125 -1.046875 -10.078125 C -1.015625 -9.96875 -0.921875 -9.984375 -0.859375 -10 C -0.640625 -10.046875 -0.453125 -10.078125 -0.109375 -9.75 C 0.109375 -9.546875 2.984375 -6.0625 3 -6.03125 C 3 -6.015625 3 -6 2.9375 -5.828125 L 0.75 -1 C 0.65625 -0.78125 0.578125 -0.640625 0.640625 -0.46875 C 0.71875 -0.28125 0.921875 -0.1875 1.125 -0.265625 C 1.1875 -0.28125 1.34375 -0.359375 1.390625 -0.46875 C 1.515625 -0.734375 2.578125 -3.8125 3.265625 -5.71875 C 4 -4.796875 4.890625 -3.734375 5.734375 -2.765625 C 5.875 -2.578125 6 -2.40625 6.25 -2.296875 C 6.4375 -2.234375 6.46875 -2.25 6.84375 -2.390625 L 7.09375 -2.484375 C 7.15625 -2.5 7.234375 -2.53125 7.203125 -2.625 C 7.171875 -2.6875 7.171875 -2.703125 7.109375 -2.734375 C 6.90625 -2.84375 6.75 -3.046875 6.625 -3.171875 Z M 1.046875 -9.921875 "/>
</g>
<g id="glyph-8-0">
<path d="M 1.484375 -4.296875 C 2.15625 -4.828125 2.46875 -5.671875 2.1875 -6.421875 C 1.90625 -7.1875 0.875 -7.421875 -0.015625 -7.078125 C -0.953125 -6.734375 -1.453125 -5.90625 -1.1875 -5.1875 C -1.078125 -4.875 -0.8125 -4.78125 -0.53125 -4.890625 C -0.25 -4.984375 -0.140625 -5.265625 -0.234375 -5.546875 C -0.40625 -6 -0.84375 -5.828125 -0.96875 -5.78125 C -0.875 -6.359375 -0.296875 -6.703125 0.03125 -6.828125 C 0.4375 -6.984375 1.03125 -6.953125 1.34375 -6.125 C 1.375 -6 1.546875 -5.453125 1.46875 -4.96875 C 1.359375 -4.390625 1.03125 -4.25 0.796875 -4.171875 C 0.75 -4.125 0.515625 -4.03125 0.453125 -4 C 0.390625 -3.96875 0.328125 -3.921875 0.359375 -3.828125 C 0.390625 -3.734375 0.453125 -3.765625 0.609375 -3.8125 L 1.03125 -3.96875 C 1.78125 -4.25 2.375 -3.734375 2.71875 -2.8125 C 3.1875 -1.546875 2.65625 -1.046875 2.234375 -0.890625 C 1.828125 -0.75 1.0625 -0.640625 0.546875 -1.0625 C 0.875 -1.140625 1.09375 -1.453125 0.96875 -1.8125 C 0.84375 -2.140625 0.515625 -2.234375 0.25 -2.140625 C 0.015625 -2.046875 -0.234375 -1.8125 -0.078125 -1.40625 C 0.234375 -0.546875 1.34375 -0.265625 2.359375 -0.640625 C 3.5 -1.0625 4.046875 -2.21875 3.6875 -3.171875 C 3.40625 -3.9375 2.53125 -4.453125 1.484375 -4.296875 Z M 1.484375 -4.296875 "/>
</g>
<g id="glyph-8-1">
<path d="M 0.921875 -1.15625 L 1.5625 -2.5 C 2.546875 -4.3125 2.90625 -5.015625 2.5625 -5.953125 C 2.15625 -7.03125 1.046875 -7.46875 -0.09375 -7.046875 C -1.15625 -6.65625 -1.515625 -5.53125 -1.203125 -4.703125 C -1.015625 -4.1875 -0.546875 -4.359375 -0.515625 -4.375 C -0.359375 -4.4375 -0.078125 -4.65625 -0.21875 -5.046875 C -0.296875 -5.28125 -0.5625 -5.46875 -0.890625 -5.359375 C -0.96875 -5.328125 -0.984375 -5.3125 -1.015625 -5.296875 C -1.03125 -5.984375 -0.65625 -6.515625 -0.109375 -6.71875 C 0.75 -7.03125 1.421875 -6.40625 1.71875 -5.640625 C 1.984375 -4.890625 1.8125 -4 1.484375 -3.21875 L 0.453125 -0.578125 C 0.375 -0.421875 0.390625 -0.390625 0.46875 -0.171875 L 3.9375 -1.453125 L 3.578125 -3.171875 L 3.359375 -3.09375 C 3.40625 -2.796875 3.515625 -2.359375 3.453125 -2.1875 C 3.421875 -2.078125 2.8125 -1.859375 2.609375 -1.78125 Z M 0.921875 -1.15625 "/>
</g>
<g id="glyph-9-0">
<path d="M 7.46875 -7.71875 C 7.671875 -7.796875 7.90625 -7.875 7.8125 -8.109375 C 7.71875 -8.359375 7.484375 -8.28125 7.28125 -8.203125 L -0.640625 -5.265625 C -0.828125 -5.203125 -1.0625 -5.109375 -0.96875 -4.875 C -0.875 -4.625 -0.65625 -4.71875 -0.453125 -4.78125 Z M 8.390625 -5.21875 C 8.59375 -5.296875 8.828125 -5.375 8.734375 -5.609375 C 8.640625 -5.875 8.40625 -5.796875 8.203125 -5.71875 L 0.28125 -2.78125 C 0.09375 -2.71875 -0.140625 -2.625 -0.046875 -2.375 C 0.046875 -2.125 0.265625 -2.21875 0.46875 -2.28125 Z M 8.390625 -5.21875 "/>
</g>
<g id="glyph-9-1">
<path d="M 0.6875 -10.046875 C 0.5625 -10.375 0.5625 -10.375 0.296875 -10.265625 C 0.109375 -9.8125 -0.390625 -9.0625 -1.765625 -8.546875 L -1.609375 -8.140625 C -1.3125 -8.25 -0.625 -8.5 -0.03125 -9.140625 L 2.5625 -2.140625 C 2.75 -1.65625 2.765625 -1.46875 1.59375 -1.03125 L 1.15625 -0.875 L 1.296875 -0.484375 C 1.65625 -0.65625 2.953125 -1.125 3.40625 -1.296875 C 3.84375 -1.453125 5.140625 -1.9375 5.515625 -2.046875 L 5.375 -2.4375 L 4.953125 -2.28125 C 3.765625 -1.84375 3.671875 -2 3.484375 -2.484375 Z M 0.6875 -10.046875 "/>
</g>
<g id="glyph-10-0">
<path d="M 7.265625 -6.828125 C 7.28125 -7.90625 6.203125 -8.3125 6.03125 -8.375 C 5.953125 -8.40625 5.8125 -8.453125 5.765625 -8.328125 C 5.734375 -8.21875 5.796875 -8.171875 5.859375 -8.15625 C 6.046875 -8.046875 6.203125 -7.953125 6.265625 -7.46875 C 6.296875 -7.171875 6.203125 -2.65625 6.1875 -2.625 C 6.1875 -2.609375 6.1875 -2.59375 6.03125 -2.515625 L 1.21875 -0.28125 C 1 -0.1875 0.859375 -0.109375 0.796875 0.0625 C 0.71875 0.25 0.828125 0.46875 1.03125 0.546875 C 1.09375 0.5625 1.25 0.609375 1.359375 0.5625 C 1.640625 0.421875 4.453125 -1.21875 6.203125 -2.21875 C 6.15625 -1.046875 6.140625 0.359375 6.140625 1.640625 C 6.125 1.859375 6.125 2.09375 6.25 2.328125 C 6.34375 2.484375 6.375 2.5 6.75 2.640625 L 7 2.734375 C 7.0625 2.75 7.140625 2.78125 7.171875 2.6875 C 7.203125 2.625 7.203125 2.609375 7.171875 2.546875 C 7.09375 2.34375 7.09375 2.078125 7.09375 1.890625 Z M 7.265625 -6.828125 "/>
</g>
<g id="glyph-11-0">
<path d="M 3.3125 -0.515625 L 3.015625 0.28125 C 2.890625 0.625 2.828125 0.71875 2.140625 0.453125 L 1.953125 0.390625 L 1.84375 0.6875 C 2.25 0.796875 2.71875 0.96875 3.125 1.125 C 3.515625 1.265625 4 1.4375 4.375 1.625 L 4.484375 1.328125 L 4.28125 1.25 C 3.59375 1 3.609375 0.890625 3.734375 0.546875 L 4.03125 -0.25 L 4.953125 0.09375 L 5.0625 -0.203125 L 4.140625 -0.546875 L 5.71875 -4.796875 C 5.796875 -4.984375 5.8125 -5.046875 5.65625 -5.109375 C 5.578125 -5.125 5.546875 -5.140625 5.4375 -5.0625 L 0.9375 -1.734375 L 0.828125 -1.4375 Z M 3.46875 -0.796875 L 1.203125 -1.640625 L 4.765625 -4.28125 Z M 3.46875 -0.796875 "/>
</g>
<g id="glyph-11-1">
<path d="M 1.453125 -0.28125 L 2.8125 -0.875 C 4.734375 -1.625 5.46875 -1.921875 5.8125 -2.859375 C 6.21875 -3.9375 5.671875 -5 4.53125 -5.421875 C 3.46875 -5.8125 2.453125 -5.1875 2.140625 -4.359375 C 1.953125 -3.84375 2.421875 -3.671875 2.453125 -3.65625 C 2.609375 -3.59375 2.984375 -3.59375 3.125 -3.984375 C 3.203125 -4.21875 3.125 -4.53125 2.796875 -4.640625 C 2.71875 -4.671875 2.703125 -4.6875 2.671875 -4.671875 C 3.125 -5.203125 3.75 -5.359375 4.296875 -5.15625 C 5.15625 -4.84375 5.265625 -3.9375 4.96875 -3.171875 C 4.703125 -2.421875 3.96875 -1.875 3.234375 -1.46875 L 0.703125 -0.140625 C 0.5625 -0.078125 0.546875 -0.046875 0.46875 0.171875 L 3.9375 1.453125 L 4.796875 -0.078125 L 4.578125 -0.15625 C 4.40625 0.109375 4.203125 0.484375 4.046875 0.59375 C 3.953125 0.640625 3.34375 0.421875 3.140625 0.34375 Z M 1.453125 -0.28125 "/>
</g>
<g id="glyph-12-0">
<path d="M 1.65625 -9.828125 C 1.015625 -10.71875 -0.078125 -10.375 -0.265625 -10.328125 C -0.328125 -10.3125 -0.484375 -10.265625 -0.4375 -10.125 C -0.40625 -10.015625 -0.328125 -10.015625 -0.234375 -10.03125 C -0.03125 -10.078125 0.15625 -10.09375 0.484375 -9.75 C 0.703125 -9.515625 3.359375 -5.859375 3.375 -5.828125 C 3.375 -5.8125 3.359375 -5.796875 3.28125 -5.65625 L 0.796875 -0.953125 C 0.6875 -0.75 0.609375 -0.609375 0.671875 -0.421875 C 0.734375 -0.234375 0.9375 -0.109375 1.15625 -0.171875 C 1.21875 -0.203125 1.34375 -0.28125 1.421875 -0.375 C 1.5625 -0.65625 2.8125 -3.671875 3.59375 -5.515625 C 4.28125 -4.546875 5.109375 -3.421875 5.890625 -2.390625 C 6 -2.21875 6.140625 -2.046875 6.390625 -1.921875 C 6.5625 -1.828125 6.59375 -1.84375 6.984375 -1.953125 L 7.234375 -2.03125 C 7.296875 -2.0625 7.390625 -2.078125 7.359375 -2.1875 C 7.328125 -2.25 7.3125 -2.265625 7.25 -2.296875 C 7.0625 -2.421875 6.90625 -2.640625 6.796875 -2.78125 Z M 1.65625 -9.828125 "/>
</g>
<g id="glyph-13-0">
<path d="M 3.703125 -3.21875 C 3.359375 -4.34375 2.28125 -5.0625 1.25 -4.75 C 0.796875 -4.609375 0.421875 -4.34375 0.1875 -3.890625 L -0.375 -5.765625 C -0.15625 -5.765625 0.171875 -5.796875 0.46875 -5.890625 C 1.65625 -6.25 2.0625 -7.3125 2.03125 -7.4375 C 2.015625 -7.5 1.96875 -7.53125 1.890625 -7.515625 C 1.890625 -7.515625 1.859375 -7.5 1.8125 -7.453125 C 1.65625 -7.3125 1.25 -6.984375 0.609375 -6.78125 C 0.234375 -6.671875 -0.25 -6.59375 -0.734375 -6.671875 C -0.828125 -6.671875 -0.84375 -6.671875 -0.859375 -6.671875 C -0.96875 -6.640625 -0.9375 -6.5625 -0.90625 -6.40625 L -0.046875 -3.59375 C 0 -3.421875 0.03125 -3.34375 0.171875 -3.375 C 0.25 -3.40625 0.265625 -3.421875 0.265625 -3.5 C 0.34375 -3.6875 0.515625 -4.296875 1.296875 -4.546875 C 1.796875 -4.6875 2.171875 -4.328125 2.296875 -4.171875 C 2.546875 -3.859375 2.6875 -3.515625 2.828125 -3.03125 C 2.9375 -2.6875 3.109375 -2.125 3 -1.640625 C 2.875 -1.203125 2.59375 -0.859375 2.171875 -0.71875 C 1.484375 -0.515625 0.765625 -0.84375 0.4375 -1.359375 C 0.46875 -1.375 0.515625 -1.359375 0.609375 -1.390625 C 0.921875 -1.484375 1.015625 -1.78125 0.953125 -2 C 0.875 -2.25 0.625 -2.421875 0.3125 -2.328125 C 0.1875 -2.296875 -0.109375 -2.109375 0.015625 -1.6875 C 0.265625 -0.859375 1.203125 -0.140625 2.265625 -0.46875 C 3.375 -0.796875 4.0625 -2 3.703125 -3.21875 Z M 3.703125 -3.21875 "/>
</g>
<g id="glyph-13-1">
<path d="M 1.75 -4.203125 C 2.453125 -4.703125 2.796875 -5.515625 2.5625 -6.28125 C 2.328125 -7.046875 1.34375 -7.34375 0.421875 -7.078125 C -0.53125 -6.78125 -1.09375 -5.984375 -0.875 -5.25 C -0.78125 -4.9375 -0.5 -4.828125 -0.21875 -4.90625 C 0.0625 -5 0.1875 -5.265625 0.09375 -5.546875 C -0.046875 -6.015625 -0.484375 -5.875 -0.625 -5.828125 C -0.484375 -6.40625 0.09375 -6.703125 0.4375 -6.8125 C 0.84375 -6.921875 1.453125 -6.890625 1.703125 -6.03125 C 1.734375 -5.921875 1.875 -5.34375 1.765625 -4.859375 C 1.609375 -4.3125 1.296875 -4.1875 1.0625 -4.109375 C 0.984375 -4.0625 0.765625 -3.984375 0.6875 -3.96875 C 0.625 -3.921875 0.5625 -3.890625 0.59375 -3.796875 C 0.625 -3.703125 0.6875 -3.71875 0.859375 -3.765625 L 1.28125 -3.890625 C 2.046875 -4.140625 2.59375 -3.59375 2.875 -2.640625 C 3.28125 -1.34375 2.703125 -0.890625 2.28125 -0.765625 C 1.875 -0.640625 1.109375 -0.578125 0.609375 -1.03125 C 0.953125 -1.09375 1.1875 -1.375 1.078125 -1.734375 C 0.96875 -2.078125 0.65625 -2.203125 0.375 -2.125 C 0.140625 -2.0625 -0.109375 -1.828125 0.015625 -1.40625 C 0.28125 -0.546875 1.34375 -0.1875 2.390625 -0.5 C 3.5625 -0.859375 4.15625 -1.984375 3.859375 -2.953125 C 3.625 -3.734375 2.796875 -4.296875 1.75 -4.203125 Z M 1.75 -4.203125 "/>
</g>
<g id="glyph-14-0">
<path d="M 6.84375 -7.265625 C 6.796875 -8.34375 5.703125 -8.6875 5.515625 -8.734375 C 5.453125 -8.75 5.296875 -8.796875 5.25 -8.65625 C 5.21875 -8.546875 5.296875 -8.515625 5.359375 -8.46875 C 5.5625 -8.390625 5.71875 -8.3125 5.796875 -7.84375 C 5.859375 -7.546875 6.046875 -3.015625 6.03125 -2.984375 C 6.03125 -2.96875 6.015625 -2.953125 5.875 -2.875 L 1.203125 -0.359375 C 1 -0.25 0.859375 -0.171875 0.796875 0.015625 C 0.734375 0.203125 0.84375 0.421875 1.0625 0.484375 C 1.125 0.515625 1.28125 0.53125 1.390625 0.46875 C 1.65625 0.3125 4.375 -1.484375 6.0625 -2.578125 C 6.09375 -1.390625 6.140625 -0.015625 6.234375 1.265625 C 6.21875 1.5 6.234375 1.703125 6.390625 1.953125 C 6.46875 2.109375 6.5 2.125 6.890625 2.234375 L 7.140625 2.3125 C 7.203125 2.34375 7.296875 2.359375 7.328125 2.25 C 7.359375 2.1875 7.34375 2.171875 7.3125 2.109375 C 7.21875 1.921875 7.21875 1.640625 7.203125 1.46875 Z M 6.84375 -7.265625 "/>
</g>
<g id="glyph-15-0">
<path d="M 2.203125 -2.75 L 2.265625 -2.984375 C 3 -5.390625 4.296875 -5.375 4.796875 -5.21875 C 5.015625 -5.15625 5.390625 -4.984375 5.5 -4.59375 C 5.359375 -4.640625 4.984375 -4.75 4.859375 -4.328125 C 4.765625 -4.03125 4.9375 -3.8125 5.140625 -3.75 C 5.296875 -3.703125 5.625 -3.703125 5.734375 -4.078125 C 5.90625 -4.640625 5.625 -5.234375 4.84375 -5.46875 C 3.609375 -5.84375 1.953125 -5 1.328125 -2.890625 C 0.546875 -0.34375 1.453125 0.65625 2.328125 0.921875 C 3.390625 1.25 4.5625 0.640625 4.953125 -0.609375 C 5.3125 -1.828125 4.75 -3 3.6875 -3.3125 C 3.046875 -3.515625 2.546875 -3.15625 2.203125 -2.75 Z M 2.40625 0.65625 C 1.8125 0.484375 1.703125 -0.171875 1.6875 -0.34375 C 1.640625 -0.828125 1.875 -1.59375 1.921875 -1.765625 C 2.140625 -2.515625 2.75 -3.375 3.609375 -3.125 C 3.78125 -3.078125 4.203125 -2.9375 4.3125 -2.25 C 4.390625 -1.859375 4.234375 -1.359375 4.09375 -0.890625 C 3.953125 -0.4375 3.8125 0.046875 3.53125 0.34375 C 3.078125 0.8125 2.625 0.734375 2.40625 0.65625 Z M 2.40625 0.65625 "/>
</g>
<g id="glyph-15-1">
<path d="M 3.78125 -2.515625 C 4.640625 -2.546875 5.390625 -3.046875 5.625 -3.8125 C 5.859375 -4.578125 5.1875 -5.375 4.265625 -5.640625 C 3.3125 -5.9375 2.40625 -5.578125 2.1875 -4.84375 C 2.09375 -4.53125 2.25 -4.296875 2.53125 -4.21875 C 2.8125 -4.125 3.0625 -4.265625 3.15625 -4.546875 C 3.296875 -5.015625 2.859375 -5.15625 2.71875 -5.203125 C 3.140625 -5.59375 3.8125 -5.515625 4.15625 -5.40625 C 4.5625 -5.296875 5.015625 -4.921875 4.765625 -4.0625 C 4.734375 -3.953125 4.53125 -3.40625 4.171875 -3.078125 C 3.734375 -2.6875 3.390625 -2.75 3.15625 -2.828125 C 3.078125 -2.84375 2.859375 -2.890625 2.78125 -2.90625 C 2.6875 -2.921875 2.625 -2.921875 2.59375 -2.828125 C 2.5625 -2.734375 2.625 -2.71875 2.796875 -2.671875 L 3.21875 -2.546875 C 3.984375 -2.296875 4.15625 -1.5625 3.875 -0.609375 C 3.46875 0.6875 2.734375 0.765625 2.3125 0.640625 C 1.90625 0.515625 1.234375 0.140625 1.078125 -0.53125 C 1.390625 -0.375 1.75 -0.5 1.859375 -0.859375 C 1.96875 -1.203125 1.78125 -1.484375 1.5 -1.5625 C 1.265625 -1.625 0.921875 -1.578125 0.796875 -1.15625 C 0.53125 -0.296875 1.21875 0.59375 2.265625 0.90625 C 3.4375 1.265625 4.5625 0.671875 4.859375 -0.296875 C 5.09375 -1.078125 4.703125 -2.015625 3.78125 -2.515625 Z M 3.78125 -2.515625 "/>
</g>
<g id="glyph-16-0">
<path d="M -0.90625 -11.625 C -1.546875 -12.1875 -2.71875 -12.21875 -3.578125 -11.234375 C -4.796875 -9.859375 -3.875 -7.46875 -3 -6.21875 L 2.265625 1.4375 C 2.328125 1.515625 2.40625 1.484375 2.453125 1.4375 C 2.515625 1.359375 2.546875 1.28125 2.515625 1.234375 L 0.15625 -2.15625 C 0.84375 -1.75 1.875 -1.90625 2.4375 -2.546875 C 3.78125 -4.078125 3.84375 -6.609375 2.25 -8.015625 C 1.84375 -8.375 1.359375 -8.640625 0.796875 -8.71875 C 0.484375 -8.765625 0.203125 -8.734375 -0.09375 -8.671875 C 0.171875 -9.8125 -0.0625 -10.875 -0.90625 -11.625 Z M -0.640625 -8.0625 C -0.734375 -7.828125 -0.859375 -7.625 -1.03125 -7.421875 C -1.171875 -7.265625 -1.296875 -7.125 -1.515625 -7 C -1.5 -7.171875 -1.375 -7.359375 -1.1875 -7.578125 C -1.015625 -7.765625 -0.828125 -7.953125 -0.640625 -8.0625 Z M -1.5 -11.140625 C -0.90625 -10.625 -0.3125 -9.578125 -0.53125 -8.515625 C -0.78125 -8.375 -1.078125 -8.140625 -1.28125 -7.90625 C -1.46875 -7.6875 -2.0625 -7.046875 -1.71875 -6.75 C -1.4375 -6.484375 -0.953125 -7.109375 -0.78125 -7.296875 C -0.546875 -7.5625 -0.375 -7.890625 -0.234375 -8.203125 C 0.34375 -8.296875 0.84375 -8.140625 1.390625 -7.671875 C 2.015625 -7.125 2.359375 -6.484375 2.65625 -5.890625 C 3.125 -4.8125 2.90625 -3.53125 2.25 -2.78125 C 1.5625 -2 0.59375 -2.140625 -0.140625 -2.796875 C -0.234375 -2.875 -0.375 -3 -0.515625 -3.171875 L -2.71875 -6.359375 C -3.828125 -7.96875 -4.296875 -9.984375 -3.390625 -11.03125 C -2.703125 -11.796875 -1.96875 -11.5625 -1.5 -11.140625 Z M -1.5 -11.140625 "/>
</g>
<g id="glyph-17-0">
<path d="M 0.25 -1.453125 L 0.1875 -2.9375 C 0.1875 -5 0.171875 -5.796875 -0.578125 -6.46875 C -1.4375 -7.21875 -2.625 -7.078125 -3.421875 -6.15625 C -4.171875 -5.3125 -3.96875 -4.15625 -3.296875 -3.5625 C -2.890625 -3.203125 -2.5625 -3.578125 -2.53125 -3.609375 C -2.421875 -3.734375 -2.28125 -4.0625 -2.59375 -4.328125 C -2.78125 -4.5 -3.109375 -4.53125 -3.328125 -4.28125 C -3.375 -4.21875 -3.390625 -4.203125 -3.390625 -4.171875 C -3.75 -4.765625 -3.65625 -5.421875 -3.28125 -5.84375 C -2.671875 -6.53125 -1.78125 -6.3125 -1.171875 -5.78125 C -0.578125 -5.25 -0.3125 -4.375 -0.21875 -3.546875 L 0.125 -0.703125 C 0.125 -0.546875 0.15625 -0.53125 0.328125 -0.375 L 2.78125 -3.15625 L 1.65625 -4.5 L 1.5 -4.328125 C 1.671875 -4.09375 1.96875 -3.75 2 -3.5625 C 2.015625 -3.453125 1.59375 -2.96875 1.4375 -2.796875 Z M 0.25 -1.453125 "/>
</g>
<g id="glyph-17-1">
<path d="M -2.84375 -6.40625 C -3.03125 -6.578125 -3.046875 -6.59375 -3.203125 -6.421875 C -3.125 -5.53125 -3.703125 -4.875 -3.90625 -4.640625 L -3.671875 -4.421875 C -3.546875 -4.578125 -3.15625 -5 -3.03125 -5.578125 L 0.84375 -2.15625 C 1.125 -1.921875 1.1875 -1.828125 0.59375 -1.15625 L 0.390625 -0.921875 L 0.625 -0.71875 C 0.828125 -0.984375 1.390625 -1.640625 1.65625 -1.9375 C 1.921875 -2.234375 2.5 -2.890625 2.75 -3.140625 L 2.515625 -3.34375 L 2.3125 -3.109375 C 1.71875 -2.421875 1.625 -2.484375 1.34375 -2.71875 Z M -2.84375 -6.40625 "/>
</g>
<g id="glyph-18-0">
<path d="M 11.5 1.84375 C 12.203125 1.34375 12.515625 0.234375 11.765625 -0.84375 C 10.703125 -2.34375 8.1875 -2.015625 6.75 -1.453125 L -1.90625 1.859375 C -2.03125 1.890625 -2.015625 1.984375 -1.96875 2.046875 C -1.90625 2.125 -1.859375 2.1875 -1.796875 2.15625 L 2.078125 0.671875 C 1.5 1.234375 1.421875 2.265625 1.90625 2.953125 C 3.09375 4.625 5.515625 5.296875 7.25 4.078125 C 7.703125 3.765625 8.0625 3.328125 8.296875 2.828125 C 8.40625 2.53125 8.4375 2.234375 8.453125 1.953125 C 9.5 2.46875 10.578125 2.484375 11.5 1.84375 Z M 7.984375 1.25 C 7.765625 1.109375 7.625 0.953125 7.46875 0.734375 C 7.359375 0.5625 7.25 0.421875 7.15625 0.171875 C 7.328125 0.21875 7.46875 0.375 7.640625 0.625 C 7.78125 0.828125 7.921875 1.0625 7.984375 1.25 Z M 11.171875 1.15625 C 10.515625 1.609375 9.375 1.953125 8.40625 1.5 C 8.328125 1.21875 8.171875 0.859375 8 0.609375 C 7.828125 0.359375 7.34375 -0.34375 6.96875 -0.09375 C 6.65625 0.140625 7.140625 0.75 7.28125 0.953125 C 7.484375 1.25 7.765625 1.484375 8.03125 1.703125 C 7.984375 2.296875 7.71875 2.734375 7.125 3.140625 C 6.453125 3.625 5.765625 3.8125 5.09375 3.953125 C 3.9375 4.1875 2.75 3.671875 2.171875 2.84375 C 1.5625 2 1.953125 1.078125 2.75 0.515625 C 2.859375 0.453125 3.015625 0.34375 3.203125 0.25 L 6.828125 -1.15625 C 8.640625 -1.859375 10.71875 -1.84375 11.53125 -0.703125 C 12.125 0.140625 11.6875 0.796875 11.171875 1.15625 Z M 11.171875 1.15625 "/>
</g>
<g id="glyph-19-0">
<path d="M 4.53125 0.34375 C 5.21875 0.859375 6.125 0.9375 6.78125 0.46875 C 7.4375 0 7.390625 -1.03125 6.84375 -1.8125 C 6.265625 -2.625 5.34375 -2.921875 4.703125 -2.46875 C 4.4375 -2.28125 4.40625 -2 4.578125 -1.75 C 4.75 -1.5 5.0625 -1.46875 5.296875 -1.640625 C 5.703125 -1.921875 5.421875 -2.296875 5.34375 -2.421875 C 5.921875 -2.46875 6.40625 -2 6.625 -1.703125 C 6.859375 -1.359375 6.984375 -0.78125 6.25 -0.265625 C 6.15625 -0.203125 5.671875 0.09375 5.171875 0.15625 C 4.59375 0.171875 4.375 -0.078125 4.234375 -0.28125 C 4.171875 -0.34375 4.03125 -0.515625 3.984375 -0.578125 C 3.921875 -0.640625 3.890625 -0.671875 3.8125 -0.625 C 3.71875 -0.5625 3.75 -0.515625 3.84375 -0.375 L 4.09375 -0.015625 C 4.5625 0.640625 4.234375 1.34375 3.421875 1.90625 C 2.3125 2.6875 1.6875 2.296875 1.4375 1.9375 C 1.171875 1.578125 0.890625 0.859375 1.171875 0.25 C 1.328125 0.5625 1.6875 0.6875 1.984375 0.46875 C 2.28125 0.265625 2.3125 -0.078125 2.140625 -0.296875 C 2 -0.515625 1.703125 -0.6875 1.34375 -0.421875 C 0.609375 0.09375 0.59375 1.21875 1.234375 2.125 C 1.9375 3.109375 3.1875 3.34375 4.015625 2.75 C 4.6875 2.28125 4.953125 1.3125 4.53125 0.34375 Z M 4.53125 0.34375 "/>
</g>
<g id="glyph-19-1">
<path d="M 6.90625 -1.265625 C 7.109375 -1.40625 7.125 -1.40625 7 -1.59375 C 6.09375 -1.75 5.59375 -2.46875 5.421875 -2.71875 L 5.171875 -2.53125 C 5.28125 -2.375 5.625 -1.890625 6.140625 -1.625 L 1.90625 1.34375 C 1.609375 1.546875 1.484375 1.578125 0.984375 0.84375 L 0.796875 0.59375 L 0.546875 0.78125 C 0.78125 1.046875 1.265625 1.75 1.5 2.078125 C 1.734375 2.40625 2.234375 3.109375 2.40625 3.40625 L 2.65625 3.21875 L 2.46875 2.96875 C 1.953125 2.234375 2.03125 2.15625 2.328125 1.953125 Z M 6.90625 -1.265625 "/>
</g>
<g id="glyph-20-0">
<path d="M 6.421875 -4.59375 C 6.421875 -5.78125 6.359375 -6.9375 5.84375 -8.03125 C 5.25 -9.21875 4.21875 -9.53125 3.515625 -9.53125 C 2.6875 -9.53125 1.65625 -9.125 1.140625 -7.9375 C 0.734375 -7.03125 0.59375 -6.140625 0.59375 -4.59375 C 0.59375 -3.203125 0.6875 -2.15625 1.203125 -1.140625 C 1.765625 -0.046875 2.75 0.296875 3.5 0.296875 C 4.75 0.296875 5.46875 -0.4375 5.875 -1.28125 C 6.390625 -2.359375 6.421875 -3.765625 6.421875 -4.59375 Z M 3.5 0.015625 C 3.046875 0.015625 2.109375 -0.25 1.84375 -1.8125 C 1.671875 -2.671875 1.671875 -3.765625 1.671875 -4.765625 C 1.671875 -5.9375 1.671875 -7 1.90625 -7.84375 C 2.15625 -8.8125 2.890625 -9.25 3.5 -9.25 C 4.046875 -9.25 4.875 -8.921875 5.15625 -7.6875 C 5.328125 -6.875 5.328125 -5.734375 5.328125 -4.765625 C 5.328125 -3.796875 5.328125 -2.71875 5.171875 -1.84375 C 4.90625 -0.265625 4 0.015625 3.5 0.015625 Z M 3.5 0.015625 "/>
</g>
</g>
</defs>
<path fill-rule="nonzero" fill="rgb(94.999695%, 94.999695%, 94.999695%)" fill-opacity="1" stroke-width="1.19553" stroke-linecap="butt" stroke-linejoin="miter" stroke="rgb(39.99939%, 39.99939%, 39.99939%)" stroke-opacity="1" stroke-miterlimit="10" d="M 172.914844 42.520438 C 172.914844 51.914969 158.953906 59.52825 141.735156 59.52825 C 124.5125 59.52825 110.551562 51.914969 110.551562 42.520438 C 110.551562 33.125906 124.5125 25.512625 141.735156 25.512625 C 158.953906 25.512625 172.914844 33.125906 172.914844 42.520438 Z M 172.914844 42.520438 " transform="matrix(1, 0, 0, -1, 42.675, 149.747)"/>
<g fill="rgb(0%, 0%, 0%)" fill-opacity="1">
<use xlink:href="#glyph-0-0" x="178.202" y="108.921"/>
</g>
<g fill="rgb(0%, 0%, 0%)" fill-opacity="1">
<use xlink:href="#glyph-1-0" x="185.133" y="111.073"/>
</g>
<path fill-rule="nonzero" fill="rgb(94.999695%, 94.999695%, 94.999695%)" fill-opacity="1" stroke-width="1.19553" stroke-linecap="butt" stroke-linejoin="miter" stroke="rgb(39.99939%, 39.99939%, 39.99939%)" stroke-opacity="1" stroke-miterlimit="10" d="M 286.301562 99.21575 C 286.301562 108.606375 272.340625 116.223563 255.121875 116.223563 C 237.899219 116.223563 223.938281 108.606375 223.938281 99.21575 C 223.938281 89.821219 237.899219 82.204031 255.121875 82.204031 C 272.340625 82.204031 286.301562 89.821219 286.301562 99.21575 Z M 286.301562 99.21575 " transform="matrix(1, 0, 0, -1, 42.675, 149.747)"/>
<g fill="rgb(0%, 0%, 0%)" fill-opacity="1">
<use xlink:href="#glyph-0-0" x="291.588" y="52.228"/>
</g>
<g fill="rgb(0%, 0%, 0%)" fill-opacity="1">
<use xlink:href="#glyph-1-1" x="298.518" y="54.38"/>
</g>
<path fill-rule="nonzero" fill="rgb(94.999695%, 94.999695%, 94.999695%)" fill-opacity="1" stroke-width="1.19553" stroke-linecap="butt" stroke-linejoin="miter" stroke="rgb(39.99939%, 39.99939%, 39.99939%)" stroke-opacity="1" stroke-miterlimit="10" d="M 286.301562 -28.34675 C 286.301562 -18.952219 272.340625 -11.338937 255.121875 -11.338937 C 237.899219 -11.338937 223.938281 -18.952219 223.938281 -28.34675 C 223.938281 -37.741281 237.899219 -45.354562 255.121875 -45.354562 C 272.340625 -45.354562 286.301562 -37.741281 286.301562 -28.34675 Z M 286.301562 -28.34675 " transform="matrix(1, 0, 0, -1, 42.675, 149.747)"/>
<g fill="rgb(0%, 0%, 0%)" fill-opacity="1">
<use xlink:href="#glyph-0-0" x="291.588" y="179.787"/>
</g>
<g fill="rgb(0%, 0%, 0%)" fill-opacity="1">
<use xlink:href="#glyph-1-2" x="298.518" y="181.939"/>
</g>
<path fill-rule="nonzero" fill="rgb(94.999695%, 94.999695%, 94.999695%)" fill-opacity="1" stroke-width="0.3985" stroke-linecap="butt" stroke-linejoin="miter" stroke="rgb(64.99939%, 64.99939%, 64.99939%)" stroke-opacity="1" stroke-miterlimit="10" d="M 2.832812 56.692313 L 53.860156 56.692313 L 53.860156 85.039969 L 2.832812 85.039969 Z M 2.832812 56.692313 " transform="matrix(1, 0, 0, -1, 42.675, 149.747)"/>
<g fill="rgb(0%, 0%, 0%)" fill-opacity="1">
<use xlink:href="#glyph-0-1" x="64.206" y="82.707"/>
</g>
<g fill="rgb(0%, 0%, 0%)" fill-opacity="1">
<use xlink:href="#glyph-1-0" x="72.357" y="84.859"/>
</g>
<path fill-rule="nonzero" fill="rgb(94.999695%, 94.999695%, 94.999695%)" fill-opacity="1" stroke-width="0.3985" stroke-linecap="butt" stroke-linejoin="miter" stroke="rgb(64.99939%, 64.99939%, 64.99939%)" stroke-opacity="1" stroke-miterlimit="10" d="M 2.832812 0.00090625 L 53.860156 0.00090625 L 53.860156 28.348563 L 2.832812 28.348563 Z M 2.832812 0.00090625 " transform="matrix(1, 0, 0, -1, 42.675, 149.747)"/>
<g fill="rgb(0%, 0%, 0%)" fill-opacity="1">
<use xlink:href="#glyph-0-1" x="64.206" y="139.4"/>
</g>
<g fill="rgb(0%, 0%, 0%)" fill-opacity="1">
<use xlink:href="#glyph-1-1" x="72.357" y="141.551"/>
</g>
<path fill-rule="nonzero" fill="rgb(94.999695%, 94.999695%, 94.999695%)" fill-opacity="1" stroke-width="0.3985" stroke-linecap="butt" stroke-linejoin="miter" stroke="rgb(64.99939%, 64.99939%, 64.99939%)" stroke-opacity="1" stroke-miterlimit="10" d="M 371.344531 116.223563 L 422.367969 116.223563 L 422.367969 144.567313 L 371.344531 144.567313 Z M 371.344531 116.223563 " transform="matrix(1, 0, 0, -1, 42.675, 149.747)"/>
<g fill="rgb(0%, 0%, 0%)" fill-opacity="1">
<use xlink:href="#glyph-0-1" x="432.71" y="23.179"/>
</g>
<g fill="rgb(0%, 0%, 0%)" fill-opacity="1">
<use xlink:href="#glyph-1-2" x="440.86" y="25.331"/>
</g>
<path fill-rule="nonzero" fill="rgb(94.999695%, 94.999695%, 94.999695%)" fill-opacity="1" stroke-width="0.3985" stroke-linecap="butt" stroke-linejoin="miter" stroke="rgb(64.99939%, 64.99939%, 64.99939%)" stroke-opacity="1" stroke-miterlimit="10" d="M 371.344531 53.860281 L 422.367969 53.860281 L 422.367969 82.204031 L 371.344531 82.204031 Z M 371.344531 53.860281 " transform="matrix(1, 0, 0, -1, 42.675, 149.747)"/>
<g fill="rgb(0%, 0%, 0%)" fill-opacity="1">
<use xlink:href="#glyph-0-1" x="432.71" y="85.542"/>
</g>
<g fill="rgb(0%, 0%, 0%)" fill-opacity="1">
<use xlink:href="#glyph-1-3" x="440.86" y="87.693"/>
</g>
<path fill-rule="nonzero" fill="rgb(94.999695%, 94.999695%, 94.999695%)" fill-opacity="1" stroke-width="0.3985" stroke-linecap="butt" stroke-linejoin="miter" stroke="rgb(64.99939%, 64.99939%, 64.99939%)" stroke-opacity="1" stroke-miterlimit="10" d="M 371.344531 -17.006906 L 422.367969 -17.006906 L 422.367969 11.336844 L 371.344531 11.336844 Z M 371.344531 -17.006906 " transform="matrix(1, 0, 0, -1, 42.675, 149.747)"/>
<g fill="rgb(0%, 0%, 0%)" fill-opacity="1">
<use xlink:href="#glyph-0-1" x="432.71" y="156.408"/>
</g>
<g fill="rgb(0%, 0%, 0%)" fill-opacity="1">
<use xlink:href="#glyph-1-4" x="440.86" y="158.56"/>
</g>
<path fill-rule="nonzero" fill="rgb(94.999695%, 94.999695%, 94.999695%)" fill-opacity="1" stroke-width="0.3985" stroke-linecap="butt" stroke-linejoin="miter" stroke="rgb(64.99939%, 64.99939%, 64.99939%)" stroke-opacity="1" stroke-miterlimit="10" d="M 371.344531 -68.030344 L 422.367969 -68.030344 L 422.367969 -39.686594 L 371.344531 -39.686594 Z M 371.344531 -68.030344 " transform="matrix(1, 0, 0, -1, 42.675, 149.747)"/>
<g fill="rgb(0%, 0%, 0%)" fill-opacity="1">
<use xlink:href="#glyph-0-1" x="432.71" y="207.431"/>
</g>
<g fill="rgb(0%, 0%, 0%)" fill-opacity="1">
<use xlink:href="#glyph-1-5" x="440.86" y="209.583"/>
</g>
<g fill="rgb(0%, 0%, 0%)" fill-opacity="1">
<use xlink:href="#glyph-0-2" x="8.302" y="80.894"/>
</g>
<g fill="rgb(0%, 0%, 0%)" fill-opacity="1">
<use xlink:href="#glyph-1-0" x="14.875" y="83.045"/>
</g>
<g fill="rgb(0%, 0%, 0%)" fill-opacity="1">
<use xlink:href="#glyph-0-2" x="8.302" y="137.586"/>
</g>
<g fill="rgb(0%, 0%, 0%)" fill-opacity="1">
<use xlink:href="#glyph-1-1" x="14.875" y="139.738"/>
</g>
<g fill="rgb(0%, 0%, 0%)" fill-opacity="1">
<use xlink:href="#glyph-0-2" x="497.278" y="21.366"/>
</g>
<g fill="rgb(0%, 0%, 0%)" fill-opacity="1">
<use xlink:href="#glyph-1-2" x="503.852" y="23.518"/>
</g>
<g fill="rgb(0%, 0%, 0%)" fill-opacity="1">
<use xlink:href="#glyph-0-2" x="497.278" y="83.728"/>
</g>
<g fill="rgb(0%, 0%, 0%)" fill-opacity="1">
<use xlink:href="#glyph-1-3" x="503.852" y="85.88"/>
</g>
<g fill="rgb(0%, 0%, 0%)" fill-opacity="1">
<use xlink:href="#glyph-0-2" x="497.278" y="154.594"/>
</g>
<g fill="rgb(0%, 0%, 0%)" fill-opacity="1">
<use xlink:href="#glyph-1-4" x="503.852" y="156.746"/>
</g>
<g fill="rgb(0%, 0%, 0%)" fill-opacity="1">
<use xlink:href="#glyph-0-2" x="497.278" y="205.618"/>
</g>
<g fill="rgb(0%, 0%, 0%)" fill-opacity="1">
<use xlink:href="#glyph-1-5" x="503.852" y="207.77"/>
</g>
<g fill="rgb(0%, 0%, 0%)" fill-opacity="1">
<use xlink:href="#glyph-0-3" x="334.505" y="82.468"/>
</g>
<g fill="rgb(0%, 0%, 0%)" fill-opacity="1">
<use xlink:href="#glyph-1-1" x="340.64" y="84.62"/>
</g>
<g fill="rgb(0%, 0%, 0%)" fill-opacity="1">
<use xlink:href="#glyph-0-3" x="334.505" y="144.83"/>
</g>
<g fill="rgb(0%, 0%, 0%)" fill-opacity="1">
<use xlink:href="#glyph-1-2" x="340.64" y="146.982"/>
</g>
<path fill="none" stroke-width="0.99628" stroke-linecap="butt" stroke-linejoin="miter" stroke="rgb(59.999084%, 59.999084%, 59.999084%)" stroke-opacity="1" stroke-miterlimit="10" d="M -22.678906 70.868094 L 1.6375 70.868094 " transform="matrix(1, 0, 0, -1, 42.675, 149.747)"/>
<path fill="none" stroke-width="0.99628" stroke-linecap="round" stroke-linejoin="round" stroke="rgb(59.999084%, 59.999084%, 59.999084%)" stroke-opacity="1" stroke-miterlimit="10" d="M -2.788803 3.469844 C -2.28099 1.387813 -1.144271 0.403438 0.00026 0.00109375 C -1.144271 -0.405156 -2.28099 -1.389531 -2.788803 -3.471562 " transform="matrix(1, 0, 0, -1, 44.81224, 78.88)"/>
<path fill="none" stroke-width="0.99628" stroke-linecap="butt" stroke-linejoin="miter" stroke="rgb(59.999084%, 59.999084%, 59.999084%)" stroke-opacity="1" stroke-miterlimit="10" d="M -22.678906 14.172781 L 1.6375 14.172781 " transform="matrix(1, 0, 0, -1, 42.675, 149.747)"/>
<path fill="none" stroke-width="0.99628" stroke-linecap="round" stroke-linejoin="round" stroke="rgb(59.999084%, 59.999084%, 59.999084%)" stroke-opacity="1" stroke-miterlimit="10" d="M -2.788803 3.472048 C -2.28099 1.390016 -1.144271 0.405641 0.00026 -0.00060875 C -1.144271 -0.406859 -2.28099 -1.387327 -2.788803 -3.469359 " transform="matrix(1, 0, 0, -1, 44.81224, 135.57361)"/>
<path fill="none" stroke-width="0.99628" stroke-linecap="butt" stroke-linejoin="miter" stroke="rgb(59.999084%, 59.999084%, 59.999084%)" stroke-opacity="1" stroke-miterlimit="10" d="M 453.547656 130.395438 L 423.563281 130.395438 " transform="matrix(1, 0, 0, -1, 42.675, 149.747)"/>
<path fill="none" stroke-width="0.99628" stroke-linecap="round" stroke-linejoin="round" stroke="rgb(59.999084%, 59.999084%, 59.999084%)" stroke-opacity="1" stroke-miterlimit="10" d="M -2.79135 3.472699 C -2.279631 1.386761 -1.142912 0.406293 0.00161875 0.0000425 C -1.142912 -0.406207 -2.279631 -1.386676 -2.79135 -3.472614 " transform="matrix(-1, 0, 0, 1, 465.7399, 19.35152)"/>
<path fill="none" stroke-width="0.99628" stroke-linecap="butt" stroke-linejoin="miter" stroke="rgb(59.999084%, 59.999084%, 59.999084%)" stroke-opacity="1" stroke-miterlimit="10" d="M 453.547656 68.032156 L 423.563281 68.032156 " transform="matrix(1, 0, 0, -1, 42.675, 149.747)"/>
<path fill="none" stroke-width="0.99628" stroke-linecap="round" stroke-linejoin="round" stroke="rgb(59.999084%, 59.999084%, 59.999084%)" stroke-opacity="1" stroke-miterlimit="10" d="M -2.79135 3.47267 C -2.279631 1.386732 -1.142912 0.406264 0.00161875 0.00001375 C -1.142912 -0.406236 -2.279631 -1.386705 -2.79135 -3.472643 " transform="matrix(-1, 0, 0, 1, 465.7399, 81.71483)"/>
<path fill="none" stroke-width="0.99628" stroke-linecap="butt" stroke-linejoin="miter" stroke="rgb(59.999084%, 59.999084%, 59.999084%)" stroke-opacity="1" stroke-miterlimit="10" d="M 453.547656 -2.835031 L 423.563281 -2.835031 " transform="matrix(1, 0, 0, -1, 42.675, 149.747)"/>
<path fill="none" stroke-width="0.99628" stroke-linecap="round" stroke-linejoin="round" stroke="rgb(59.999084%, 59.999084%, 59.999084%)" stroke-opacity="1" stroke-miterlimit="10" d="M -2.79135 3.468941 C -2.279631 1.38691 -1.142912 0.406441 0.00161875 0.00019125 C -1.142912 -0.406059 -2.279631 -1.386527 -2.79135 -3.472465 " transform="matrix(-1, 0, 0, 1, 465.7399, 152.58184)"/>
<path fill="none" stroke-width="0.99628" stroke-linecap="butt" stroke-linejoin="miter" stroke="rgb(59.999084%, 59.999084%, 59.999084%)" stroke-opacity="1" stroke-miterlimit="10" d="M 453.547656 -53.858469 L 423.563281 -53.858469 " transform="matrix(1, 0, 0, -1, 42.675, 149.747)"/>
<path fill="none" stroke-width="0.99628" stroke-linecap="round" stroke-linejoin="round" stroke="rgb(59.999084%, 59.999084%, 59.999084%)" stroke-opacity="1" stroke-miterlimit="10" d="M -2.79135 3.472375 C -2.279631 1.386437 -1.142912 0.405969 0.00161875 -0.00028125 C -1.142912 -0.406531 -2.279631 -1.387 -2.79135 -3.469031 " transform="matrix(-1, 0, 0, 1, 465.7399, 203.60575)"/>
<path fill="none" stroke-width="0.99628" stroke-linecap="butt" stroke-linejoin="miter" stroke="rgb(59.999084%, 59.999084%, 59.999084%)" stroke-opacity="1" stroke-miterlimit="10" d="M 290.555469 70.868094 L 278.223437 85.993094 " transform="matrix(1, 0, 0, -1, 42.675, 149.747)"/>
<path fill="none" stroke-width="0.99628" stroke-linecap="round" stroke-linejoin="round" stroke="rgb(59.999084%, 59.999084%, 59.999084%)" stroke-opacity="1" stroke-miterlimit="10" d="M -2.789628 3.469388 C -2.278123 1.389063 -1.145128 0.404828 0.00116446 -0.000538123 C -1.145934 -0.405996 -2.278851 -1.387525 -2.7887 -3.471803 " transform="matrix(-0.63188, -0.77501, -0.77501, 0.63188, 320.58235, 63.36843)"/>
<path fill="none" stroke-width="0.99628" stroke-linecap="butt" stroke-linejoin="miter" stroke="rgb(59.999084%, 59.999084%, 59.999084%)" stroke-opacity="1" stroke-miterlimit="10" d="M 290.555469 8.504813 L 278.059375 -15.018625 " transform="matrix(1, 0, 0, -1, 42.675, 149.747)"/>
<path fill="none" stroke-width="0.99628" stroke-linecap="round" stroke-linejoin="round" stroke="rgb(59.999084%, 59.999084%, 59.999084%)" stroke-opacity="1" stroke-miterlimit="10" d="M -2.78801 3.471629 C -2.278847 1.388926 -1.1449 0.403318 -0.000790501 -0.00186931 C -1.144187 -0.405755 -2.280281 -1.38963 -2.789979 -3.469478 " transform="matrix(-0.4691, 0.88312, 0.88312, 0.4691, 320.50128, 165.2047)"/>
<path fill="none" stroke-width="0.99628" stroke-linecap="butt" stroke-linejoin="miter" stroke="rgb(59.999084%, 59.999084%, 59.999084%)" stroke-opacity="1" stroke-miterlimit="10" d="M 109.953906 42.520438 L 54.946094 70.414969 " transform="matrix(1, 0, 0, -1, 42.675, 149.747)"/>
<path fill="none" stroke-width="0.99628" stroke-linecap="round" stroke-linejoin="round" stroke="rgb(59.999084%, 59.999084%, 59.999084%)" stroke-opacity="1" stroke-miterlimit="10" d="M -2.787254 3.470389 C -2.279293 1.389095 -1.145142 0.40498 0.00143866 0.000941205 C -1.145783 -0.405634 -2.280998 -1.388652 -2.788033 -3.472212 " transform="matrix(-0.89185, -0.45227, -0.45227, 0.89185, 97.17749, 79.10528)"/>
<g fill="rgb(0%, 0%, 0%)" fill-opacity="1">
<use xlink:href="#glyph-2-0" x="107.504" y="77.65"/>
</g>
<g fill="rgb(0%, 0%, 0%)" fill-opacity="1">
<use xlink:href="#glyph-3-0" x="113.838534" y="83.275162"/>
<use xlink:href="#glyph-3-0" x="118.281106" y="85.528054"/>
</g>
<g fill="rgb(0%, 0%, 0%)" fill-opacity="1">
<use xlink:href="#glyph-4-0" x="127.695484" y="87.889393"/>
</g>
<g fill="rgb(0%, 0%, 0%)" fill-opacity="1">
<use xlink:href="#glyph-4-1" x="140.996811" y="94.634688"/>
</g>
<path fill="none" stroke-width="0.99628" stroke-linecap="butt" stroke-linejoin="miter" stroke="rgb(59.999084%, 59.999084%, 59.999084%)" stroke-opacity="1" stroke-miterlimit="10" d="M 109.953906 42.520438 L 54.946094 14.625906 " transform="matrix(1, 0, 0, -1, 42.675, 149.747)"/>
<path fill="none" stroke-width="0.99628" stroke-linecap="round" stroke-linejoin="round" stroke="rgb(59.999084%, 59.999084%, 59.999084%)" stroke-opacity="1" stroke-miterlimit="10" d="M -2.788248 3.471789 C -2.281213 1.388229 -1.145998 0.40521 0.00122382 -0.00136486 C -1.145357 -0.405404 -2.279508 -1.389519 -2.787469 -3.470812 " transform="matrix(-0.89185, 0.45227, 0.45227, 0.89185, 97.17749, 135.34832)"/>
<g fill="rgb(0%, 0%, 0%)" fill-opacity="1">
<use xlink:href="#glyph-5-0" x="113.661" y="120.294"/>
</g>
<g fill="rgb(0%, 0%, 0%)" fill-opacity="1">
<use xlink:href="#glyph-6-0" x="121.942104" y="118.507361"/>
<use xlink:href="#glyph-6-1" x="126.384676" y="116.254468"/>
</g>
<path fill="none" stroke-width="0.99628" stroke-linecap="butt" stroke-linejoin="miter" stroke="rgb(59.999084%, 59.999084%, 59.999084%)" stroke-opacity="1" stroke-miterlimit="10" d="M 286.899219 99.21575 L 370.207812 130.047781 " transform="matrix(1, 0, 0, -1, 42.675, 149.747)"/>
<path fill="none" stroke-width="0.99628" stroke-linecap="round" stroke-linejoin="round" stroke="rgb(59.999084%, 59.999084%, 59.999084%)" stroke-opacity="1" stroke-miterlimit="10" d="M -2.78954 3.470244 C -2.281783 1.387069 -1.145963 0.404359 0.000174572 0.000983064 C -1.145238 -0.403993 -2.279939 -1.387756 -2.788116 -3.469803 " transform="matrix(0.93779, -0.34709, -0.34709, -0.93779, 413.35174, 19.52442)"/>
<g fill="rgb(0%, 0%, 0%)" fill-opacity="1">
<use xlink:href="#glyph-7-0" x="348.72" y="37.08"/>
</g>
<g fill="rgb(0%, 0%, 0%)" fill-opacity="1">
<use xlink:href="#glyph-8-0" x="357.151189" y="36.254069"/>
<use xlink:href="#glyph-8-1" x="361.822602" y="34.525109"/>
</g>
<g fill="rgb(0%, 0%, 0%)" fill-opacity="1">
<use xlink:href="#glyph-9-0" x="369.951566" y="29.221882"/>
</g>
<g fill="rgb(0%, 0%, 0%)" fill-opacity="1">
<use xlink:href="#glyph-9-1" x="383.938056" y="24.045275"/>
</g>
<path fill="none" stroke-width="0.99628" stroke-linecap="butt" stroke-linejoin="miter" stroke="rgb(59.999084%, 59.999084%, 59.999084%)" stroke-opacity="1" stroke-miterlimit="10" d="M 286.899219 99.21575 L 370.207812 68.379813 " transform="matrix(1, 0, 0, -1, 42.675, 149.747)"/>
<path fill="none" stroke-width="0.99628" stroke-linecap="round" stroke-linejoin="round" stroke="rgb(59.999084%, 59.999084%, 59.999084%)" stroke-opacity="1" stroke-miterlimit="10" d="M -2.788104 3.469769 C -2.279926 1.387722 -1.145226 0.403959 0.000187155 -0.00101706 C -1.14595 -0.404393 -2.281771 -1.387103 -2.789528 -3.470278 " transform="matrix(0.93779, 0.34709, 0.34709, -0.93779, 413.35174, 81.54195)"/>
<g fill="rgb(0%, 0%, 0%)" fill-opacity="1">
<use xlink:href="#glyph-10-0" x="365.018" y="57.289"/>
</g>
<g fill="rgb(0%, 0%, 0%)" fill-opacity="1">
<use xlink:href="#glyph-11-0" x="371.955314" y="62.15118"/>
<use xlink:href="#glyph-11-1" x="376.626727" y="63.880139"/>
</g>
<path fill="none" stroke-width="0.99628" stroke-linecap="butt" stroke-linejoin="miter" stroke="rgb(59.999084%, 59.999084%, 59.999084%)" stroke-opacity="1" stroke-miterlimit="10" d="M 286.899219 -28.34675 L 370.192187 -3.124094 " transform="matrix(1, 0, 0, -1, 42.675, 149.747)"/>
<path fill="none" stroke-width="0.99628" stroke-linecap="round" stroke-linejoin="round" stroke="rgb(59.999084%, 59.999084%, 59.999084%)" stroke-opacity="1" stroke-miterlimit="10" d="M -2.787632 3.472302 C -2.280033 1.388018 -1.145489 0.403656 0.0014034 -0.000782843 C -1.14533 -0.404539 -2.279715 -1.387534 -2.787969 -3.470318 " transform="matrix(0.95705, -0.28981, -0.28981, -0.95705, 413.34218, 152.72622)"/>
<g fill="rgb(0%, 0%, 0%)" fill-opacity="1">
<use xlink:href="#glyph-12-0" x="361.036" y="162.327"/>
</g>
<g fill="rgb(0%, 0%, 0%)" fill-opacity="1">
<use xlink:href="#glyph-13-0" x="369.501739" y="162.011868"/>
<use xlink:href="#glyph-13-1" x="374.269092" y="160.568238"/>
</g>
<path fill="none" stroke-width="0.99628" stroke-linecap="butt" stroke-linejoin="miter" stroke="rgb(59.999084%, 59.999084%, 59.999084%)" stroke-opacity="1" stroke-miterlimit="10" d="M 286.899219 -28.34675 L 370.192187 -53.569406 " transform="matrix(1, 0, 0, -1, 42.675, 149.747)"/>
<path fill="none" stroke-width="0.99628" stroke-linecap="round" stroke-linejoin="round" stroke="rgb(59.999084%, 59.999084%, 59.999084%)" stroke-opacity="1" stroke-miterlimit="10" d="M -2.787995 3.470404 C -2.279741 1.38762 -1.145356 0.404625 0.00137732 0.000868983 C -1.145515 -0.40357 -2.280059 -1.387932 -2.787658 -3.472215 " transform="matrix(0.95705, 0.28981, 0.28981, -0.95705, 413.34218, 203.46137)"/>
<g fill="rgb(0%, 0%, 0%)" fill-opacity="1">
<use xlink:href="#glyph-14-0" x="364.496" y="182.432"/>
</g>
<g fill="rgb(0%, 0%, 0%)" fill-opacity="1">
<use xlink:href="#glyph-15-0" x="371.714397" y="186.866275"/>
<use xlink:href="#glyph-15-1" x="376.48175" y="188.309905"/>
</g>
<path fill="none" stroke-width="0.99628" stroke-linecap="butt" stroke-linejoin="miter" stroke="rgb(59.999084%, 59.999084%, 59.999084%)" stroke-opacity="1" stroke-miterlimit="10" d="M 173.5125 42.520438 L 222.684375 98.46575 " transform="matrix(1, 0, 0, -1, 42.675, 149.747)"/>
<path fill="none" stroke-width="0.99628" stroke-linecap="round" stroke-linejoin="round" stroke="rgb(59.999084%, 59.999084%, 59.999084%)" stroke-opacity="1" stroke-miterlimit="10" d="M -2.790351 3.472285 C -2.279715 1.388277 -1.144571 0.404442 0.000315193 0.00126227 C -1.144249 -0.406607 -2.278727 -1.388106 -2.789349 -3.46996 " transform="matrix(0.66013, -0.75108, -0.75108, -0.66013, 265.68824, 50.90732)"/>
<g fill="rgb(0%, 0%, 0%)" fill-opacity="1">
<use xlink:href="#glyph-16-0" x="230.067" y="81.425"/>
</g>
<g fill="rgb(0%, 0%, 0%)" fill-opacity="1">
<use xlink:href="#glyph-17-0" x="236.918155" y="76.889535"/>
<use xlink:href="#glyph-17-1" x="240.206461" y="73.148181"/>
</g>
<path fill="none" stroke-width="0.99628" stroke-linecap="butt" stroke-linejoin="miter" stroke="rgb(59.999084%, 59.999084%, 59.999084%)" stroke-opacity="1" stroke-miterlimit="10" d="M 173.5125 42.520438 L 222.770312 -27.530344 " transform="matrix(1, 0, 0, -1, 42.675, 149.747)"/>
<path fill="none" stroke-width="0.99628" stroke-linecap="round" stroke-linejoin="round" stroke="rgb(59.999084%, 59.999084%, 59.999084%)" stroke-opacity="1" stroke-miterlimit="10" d="M -2.791388 3.471599 C -2.279559 1.38781 -1.146496 0.404881 0.000898885 -0.00075581 C -1.142754 -0.404788 -2.27802 -1.38776 -2.789312 -3.473244 " transform="matrix(0.57516, 0.818, 0.818, -0.57516, 265.73057, 177.68633)"/>
<g fill="rgb(0%, 0%, 0%)" fill-opacity="1">
<use xlink:href="#glyph-18-0" x="241.216" y="131.338"/>
</g>
<g fill="rgb(0%, 0%, 0%)" fill-opacity="1">
<use xlink:href="#glyph-19-0" x="244.017258" y="139.063302"/>
<use xlink:href="#glyph-19-1" x="246.882302" y="143.138006"/>
</g>
<path fill="none" stroke-width="0.99628" stroke-linecap="butt" stroke-linejoin="miter" stroke="rgb(59.999084%, 59.999084%, 59.999084%)" stroke-opacity="1" stroke-miterlimit="10" d="M 255.121875 81.606375 L 255.121875 -9.745187 " transform="matrix(1, 0, 0, -1, 42.675, 149.747)"/>
<path fill="none" stroke-width="0.99628" stroke-linecap="round" stroke-linejoin="round" stroke="rgb(59.999084%, 59.999084%, 59.999084%)" stroke-opacity="1" stroke-miterlimit="10" d="M -2.790641 3.469345 C -2.278923 1.387314 -1.14611 0.406845 -0.00157875 0.000595 C -1.14611 -0.405655 -2.278923 -1.39003 -2.790641 -3.472061 " transform="matrix(0, 1, 1, 0, 297.79628, 159.98986)"/>
<g fill="rgb(0%, 0%, 0%)" fill-opacity="1">
<use xlink:href="#glyph-0-4" x="301.612" y="117.901"/>
</g>
<g fill="rgb(0%, 0%, 0%)" fill-opacity="1">
<use xlink:href="#glyph-1-2" x="309.542" y="120.053"/>
<use xlink:href="#glyph-1-1" x="314.5233" y="120.053"/>
</g>
<path fill="none" stroke-width="0.99628" stroke-linecap="butt" stroke-linejoin="miter" stroke="rgb(59.999084%, 59.999084%, 59.999084%)" stroke-opacity="1" stroke-miterlimit="10" d="M 306.785937 67.270438 C 321.778125 49.40325 321.778125 24.297781 306.785937 6.430594 " transform="matrix(1, 0, 0, -1, 42.675, 149.747)"/>
<path fill="none" stroke-width="0.99628" stroke-linecap="round" stroke-linejoin="round" stroke="rgb(59.999084%, 59.999084%, 59.999084%)" stroke-opacity="1" stroke-miterlimit="10" d="M -2.788901 3.47251 C -2.279332 1.387615 -1.145314 0.405445 -0.000826885 0.000922306 C -1.143577 -0.406819 -2.277774 -1.387772 -2.791524 -3.470685 " transform="matrix(-0.64278, -0.76602, -0.76602, 0.64278, 349.1408, 82.09643)"/>
<path fill="none" stroke-width="0.99628" stroke-linecap="round" stroke-linejoin="round" stroke="rgb(59.999084%, 59.999084%, 59.999084%)" stroke-opacity="1" stroke-miterlimit="10" d="M -2.791219 3.470941 C -2.277469 1.388028 -1.146264 0.404565 -0.00052142 -0.000665985 C -1.145008 -0.405188 -2.279027 -1.387358 -2.788595 -3.472254 " transform="matrix(-0.64278, 0.76602, 0.76602, 0.64278, 349.1408, 143.69614)"/>
<g fill="rgb(0%, 0%, 0%)" fill-opacity="1">
<use xlink:href="#glyph-20-0" x="364.359" y="117.52"/>
</g>
</svg>
